<svg width="61" height="63" viewBox="0 0 61 63" fill="none" xmlns="http://www.w3.org/2000/svg">
<path d="M11.2644 46.7527C10.5661 45.7707 10.7961 44.4085 11.7781 43.7103L46.0071 19.3715C48.6259 17.5094 52.2583 18.1228 54.1204 20.7416C54.8187 21.7236 54.5887 23.0858 53.6066 23.784L19.3776 48.1228C16.7589 49.9849 13.1264 49.3715 11.2644 46.7527Z" fill="white"/>
<path d="M19.3643 56.9957C19.1631 55.8076 19.9631 54.6814 21.1512 54.4801L53.6749 48.9716C56.843 48.435 59.8463 50.5683 60.3829 53.7365C60.5841 54.9246 59.7842 56.0508 58.5961 56.252L26.0724 61.7606C22.9042 62.2972 19.9009 60.1638 19.3643 56.9957Z" fill="white"/>
<path d="M5.52306 40.7374C2.47276 39.727 0.819089 36.4352 1.82949 33.3849L12.202 2.07125C12.5809 0.927389 13.8153 0.307259 14.9592 0.686159C18.0095 1.69656 19.6632 4.98841 18.6528 8.03871L8.28027 39.3524C7.90137 40.4962 6.66693 41.1163 5.52306 40.7374Z" fill="white"/>
</svg>
