<svg width="49" height="50" viewBox="0 0 49 50" fill="none" xmlns="http://www.w3.org/2000/svg">
<path d="M8.97795 37.2639C8.42139 36.4812 8.60473 35.3955 9.38745 34.8389L36.6693 15.44C38.7566 13.9558 41.6518 14.4447 43.1359 16.532C43.6925 17.3147 43.5091 18.4004 42.7264 18.957L15.4446 38.3559C13.3573 39.8401 10.4621 39.3512 8.97795 37.2639Z" fill="black"/>
<path d="M15.4342 45.4277C15.2738 44.4808 15.9114 43.5831 16.8584 43.4227L42.781 39.0322C45.3062 38.6045 47.6999 40.3049 48.1276 42.83C48.288 43.777 47.6504 44.6746 46.7034 44.835L20.7808 49.2255C18.2556 49.6532 15.8619 47.9529 15.4342 45.4277Z" fill="black"/>
<path d="M4.4021 32.4692C1.97089 31.6638 0.652847 29.0401 1.45817 26.6089L9.72546 1.65067C10.0275 0.738965 11.0114 0.244701 11.9231 0.546698C14.3543 1.35203 15.6723 3.97576 14.867 6.40697L6.5997 31.3652C6.2977 32.2769 5.3138 32.7712 4.4021 32.4692Z" fill="black"/>
</svg>
